<svg xmlns="http://www.w3.org/2000/svg"  viewBox="0 0 30 30" width="30px" height="30px" baseProfile="basic">
 <g id="Camada_x0020_1">
  <metadata id="CorelCorpID_0Corel-Layer"/>
  <path class="fil0" d="M22.19 14.96c-0.16,0.18 -0.39,0.3 -0.66,0.3 -0.46,0 -0.84,-0.35 -0.84,-0.79 0,-0.41 0.32,-0.74 0.74,-0.78 -0.11,0.13 -0.18,0.3 -0.18,0.48 0,0.44 0.38,0.79 0.84,0.79 0.03,0 0.07,0 0.1,0z"/>
  <path class="fil1" d="M22.19 14.96c-0.04,0.04 -0.08,0.08 -0.12,0.11 -0.02,0 -0.04,0 -0.06,0 -0.46,0 -0.84,-0.35 -0.84,-0.78 0,-0.19 0.07,-0.36 0.19,-0.5 -0.07,0.11 -0.11,0.24 -0.11,0.38 0,0.44 0.38,0.79 0.84,0.79 0.03,0 0.07,0 0.1,0z"/>
  <ellipse class="fil2" cx="20.91" cy="14.33" rx="0.08" ry="0.07"/>
  <circle class="fil2" cx="21.27" cy="14.87" r="0.06"/>
 </g>
</svg>
